<svg fill="#ffffff" version="1.1" id="Capa_1" xmlns="http://www.w3.org/2000/svg" xmlns:xlink="http://www.w3.org/1999/xlink" viewBox="0 0 98.299 98.299" xml:space="preserve" stroke="#ffffff"><g id="SVGRepo_bgCarrier" stroke-width="0"></g><g id="SVGRepo_tracerCarrier" stroke-linecap="round" stroke-linejoin="round"></g><g id="SVGRepo_iconCarrier"> <g> <g> <path d="M68.066,72.064h-4.466c0.007-0.054,0.03-0.102,0.03-0.155c0-0.684-0.555-1.238-1.238-1.238 c-0.685,0-1.238,0.556-1.238,1.238c0,0.055,0.023,0.103,0.031,0.155H56.72c-0.182,0-0.339,0.127-0.377,0.304 c-0.038,0.178,0.053,0.357,0.218,0.433l5.192,2.363c0.406,0.186,0.872,0.186,1.278,0l5.192-2.363 c0.166-0.074,0.256-0.255,0.219-0.433C68.404,72.191,68.246,72.064,68.066,72.064z"></path> <path d="M35.601,18.269h27.098c3.342,0,6.051-2.709,6.051-6.052v-0.688c0-2.758-1.668-5.24-4.221-6.283L54.021,0.955 c-3.121-1.273-6.62-1.273-9.741-0.001L33.77,5.247c-2.553,1.043-4.221,3.525-4.221,6.283v0.688 C29.549,15.56,32.258,18.269,35.601,18.269z M43.477,9.826h4.465c-0.007-0.053-0.031-0.101-0.031-0.155 c0-0.684,0.555-1.237,1.238-1.237c0.685,0,1.239,0.555,1.239,1.237c0,0.056-0.024,0.104-0.031,0.155h4.466 c0.18,0,0.338,0.127,0.377,0.304c0.037,0.179-0.053,0.357-0.219,0.434l-5.192,2.362c-0.406,0.186-0.872,0.186-1.278,0 l-5.193-2.362c-0.165-0.075-0.256-0.255-0.217-0.434C43.138,9.953,43.295,9.826,43.477,9.826z"></path> <path d="M49.15,26.292c10.825,0,19.6-3.688,19.6-8.24c0-0.061-0.043-0.11-0.102-0.122c-0.061-0.012-0.118,0.021-0.141,0.077 c-1.427,3.683-9.542,3.834-19.358,3.834c-9.817,0-17.933-0.151-19.359-3.834c-0.021-0.057-0.08-0.089-0.14-0.077 c-0.059,0.012-0.102,0.062-0.102,0.122C29.549,22.603,38.325,26.292,49.15,26.292z"></path> <path d="M82.525,84.399c-1.105-21.469-9.211-32.121-16.97-36.726c-4.255,5.556-10.096,8.791-16.404,8.791 c-6.432,0-12.322-3.207-16.545-8.725c-0.004,0.004-0.01,0.007-0.018,0.011C24.88,52.408,16.876,63.074,15.773,84.4 c-0.193,3.791,2.354,7.045,5.696,7.266C21.586,91.676,28.004,92,28.004,92c3.802,4.185,11.362,6.299,21.004,6.299 c9.082,0,17.298-1.77,21.285-6.299c0,0,6.419-0.324,6.54-0.334C80.173,91.446,82.723,88.192,82.525,84.399z M42.926,91.933 c-4.938-0.615-8.69-2.005-10.479-3.972l-1.606-1.764V79.93c0-0.83-0.672-1.503-1.501-1.503c-0.83,0-1.502,0.673-1.502,1.503v6.047 c-1.291-0.064-4.873-0.246-5.805-0.295c-0.106-0.13-0.271-0.455-0.262-0.976c0.161-8.516,2.85-21.484,10.201-28.893 c3.289,2.875,7.088,4.881,11.12,5.893c-0.113,0.469-0.179,0.955-0.179,1.459c0,1.918,0.867,3.633,2.23,4.777L42.926,91.933z M76.267,85.683c-0.865,0.047-4.5,0.229-5.806,0.295v-6.047c0-0.83-0.673-1.503-1.502-1.503c-0.831,0-1.502,0.673-1.502,1.503 v6.202l-1.672,1.898c-1.689,1.92-5.42,3.279-10.412,3.893L53.157,67.94c1.36-1.146,2.227-2.857,2.227-4.773 c0-0.502-0.064-0.985-0.178-1.453c4.021-1.004,7.837-2.996,11.121-5.897c6.739,6.332,10.144,20.193,10.201,28.893 C76.532,85.229,76.372,85.553,76.267,85.683z"></path> <path d="M31.405,38.819c3.309,8.871,10.01,14.346,17.744,14.346c8.097,0,14.394-5.688,17.74-14.346 c3.407-0.297,5.293-3.629,5.977-7.631c0.809-4.727-0.889-7.03-3.877-7.547c-0.043-0.461-0.09-0.916-0.141-1.367 c-1.096,1.192-2.652,2.254-4.579,3.135c-0.114,2.186-0.399,3.898-0.671,5.462c-1.672,9.632-6.837,16.67-14.449,16.67 c-8.084,0-13.939-8.062-14.773-19.447c-0.067-0.921,0.027-2.521,0.027-2.521c-2.098-0.911-3.785-2.027-4.95-3.296 c-0.05,0.451-0.098,0.904-0.141,1.365c-2.988,0.517-4.685,2.82-3.879,7.547C26.112,35.144,27.932,38.497,31.405,38.819z"></path> </g> </g> </g></svg>